<?xml version="1.0" encoding="UTF-8"?>
<svg xmlns="http://www.w3.org/2000/svg" xmlns:xlink="http://www.w3.org/1999/xlink" width="2000" height="2000" viewBox="0 0 2000 2000">
<path fill-rule="evenodd" fill="rgb(0%, 0%, 0%)" fill-opacity="1" d="M 1750 1750 L 1500 1750 L 1500 2000 L 1750 2000 L 1750 1750 "/>
<path fill-rule="evenodd" fill="rgb(0%, 0%, 0%)" fill-opacity="1" d="M 1250 1750 L 1000 1750 L 1000 2000 L 1250 2000 L 1250 1750 "/>
<path fill-rule="evenodd" fill="rgb(0%, 0%, 0%)" fill-opacity="1" d="M 750 1750 L 500 1750 L 500 2000 L 750 2000 L 750 1750 "/>
<path fill-rule="evenodd" fill="rgb(0%, 0%, 0%)" fill-opacity="1" d="M 250 1750 L 0 1750 L 0 2000 L 250 2000 L 250 1750 "/>
<path fill-rule="evenodd" fill="rgb(0%, 0%, 0%)" fill-opacity="1" d="M 2000 1500 L 1750 1500 L 1750 1750 L 2000 1750 L 2000 1500 "/>
<path fill-rule="evenodd" fill="rgb(0%, 0%, 0%)" fill-opacity="1" d="M 1500 1500 L 1250 1500 L 1250 1750 L 1500 1750 L 1500 1500 "/>
<path fill-rule="evenodd" fill="rgb(0%, 0%, 0%)" fill-opacity="1" d="M 1000 1500 L 750 1500 L 750 1750 L 1000 1750 L 1000 1500 "/>
<path fill-rule="evenodd" fill="rgb(0%, 0%, 0%)" fill-opacity="1" d="M 500 1500 L 250 1500 L 250 1750 L 500 1750 L 500 1500 "/>
<path fill-rule="evenodd" fill="rgb(0%, 0%, 0%)" fill-opacity="1" d="M 1750 1250 L 1500 1250 L 1500 1500 L 1750 1500 L 1750 1250 "/>
<path fill-rule="evenodd" fill="rgb(0%, 0%, 0%)" fill-opacity="1" d="M 1250 1250 L 1000 1250 L 1000 1500 L 1250 1500 L 1250 1250 "/>
<path fill-rule="evenodd" fill="rgb(0%, 0%, 0%)" fill-opacity="1" d="M 750 1250 L 500 1250 L 500 1500 L 750 1500 L 750 1250 "/>
<path fill-rule="evenodd" fill="rgb(0%, 0%, 0%)" fill-opacity="1" d="M 250 1250 L 0 1250 L 0 1500 L 250 1500 L 250 1250 "/>
<path fill-rule="evenodd" fill="rgb(0%, 0%, 0%)" fill-opacity="1" d="M 2000 1000 L 1750 1000 L 1750 1250 L 2000 1250 L 2000 1000 "/>
<path fill-rule="evenodd" fill="rgb(0%, 0%, 0%)" fill-opacity="1" d="M 1500 1000 L 1250 1000 L 1250 1250 L 1500 1250 L 1500 1000 "/>
<path fill-rule="evenodd" fill="rgb(0%, 0%, 0%)" fill-opacity="1" d="M 1000 1000 L 750 1000 L 750 1250 L 1000 1250 L 1000 1000 "/>
<path fill-rule="evenodd" fill="rgb(0%, 0%, 0%)" fill-opacity="1" d="M 500 1000 L 250 1000 L 250 1250 L 500 1250 L 500 1000 "/>
<path fill-rule="evenodd" fill="rgb(0%, 0%, 0%)" fill-opacity="1" d="M 1750 750 L 1500 750 L 1500 1000 L 1750 1000 L 1750 750 "/>
<path fill-rule="evenodd" fill="rgb(0%, 0%, 0%)" fill-opacity="1" d="M 1250 750 L 1000 750 L 1000 1000 L 1250 1000 L 1250 750 "/>
<path fill-rule="evenodd" fill="rgb(0%, 0%, 0%)" fill-opacity="1" d="M 750 750 L 500 750 L 500 1000 L 750 1000 L 750 750 "/>
<path fill-rule="evenodd" fill="rgb(0%, 0%, 0%)" fill-opacity="1" d="M 250 750 L 0 750 L 0 1000 L 250 1000 L 250 750 "/>
<path fill-rule="evenodd" fill="rgb(0%, 0%, 0%)" fill-opacity="1" d="M 2000 500 L 1750 500 L 1750 750 L 2000 750 L 2000 500 "/>
<path fill-rule="evenodd" fill="rgb(0%, 0%, 0%)" fill-opacity="1" d="M 1500 500 L 1250 500 L 1250 750 L 1500 750 L 1500 500 "/>
<path fill-rule="evenodd" fill="rgb(0%, 0%, 0%)" fill-opacity="1" d="M 1000 500 L 750 500 L 750 750 L 1000 750 L 1000 500 "/>
<path fill-rule="evenodd" fill="rgb(0%, 0%, 0%)" fill-opacity="1" d="M 500 500 L 250 500 L 250 750 L 500 750 L 500 500 "/>
<path fill-rule="evenodd" fill="rgb(0%, 0%, 0%)" fill-opacity="1" d="M 1750 250 L 1500 250 L 1500 500 L 1750 500 L 1750 250 "/>
<path fill-rule="evenodd" fill="rgb(0%, 0%, 0%)" fill-opacity="1" d="M 1250 250 L 1000 250 L 1000 500 L 1250 500 L 1250 250 "/>
<path fill-rule="evenodd" fill="rgb(0%, 0%, 0%)" fill-opacity="1" d="M 750 250 L 500 250 L 500 500 L 750 500 L 750 250 "/>
<path fill-rule="evenodd" fill="rgb(0%, 0%, 0%)" fill-opacity="1" d="M 250 250 L 0 250 L 0 500 L 250 500 L 250 250 "/>
<path fill-rule="evenodd" fill="rgb(0%, 0%, 0%)" fill-opacity="1" d="M 2000 0 L 1750 0 L 1750 250 L 2000 250 L 2000 0 "/>
<path fill-rule="evenodd" fill="rgb(0%, 0%, 0%)" fill-opacity="1" d="M 1500 0 L 1250 0 L 1250 250 L 1500 250 L 1500 0 "/>
<path fill-rule="evenodd" fill="rgb(0%, 0%, 0%)" fill-opacity="1" d="M 1000 0 L 750 0 L 750 250 L 1000 250 L 1000 0 "/>
<path fill-rule="evenodd" fill="rgb(0%, 0%, 0%)" fill-opacity="1" d="M 500 0 L 250 0 L 250 250 L 500 250 L 500 0 "/>
</svg>
